<svg xmlns="http://www.w3.org/2000/svg" width="200" height="29" viewBox="0 0 200 29">
    <path fill="#FFF" d="M83.745 7.119l2.742 9.314 2.728-9.314h4.23l-5.935 17.3-.328.789c-.882 1.956-2.337 2.934-4.365 2.934-.573 0-1.156-.088-1.747-.263v-3.03l.601.013c.746 0 1.3-.115 1.664-.346.373-.23.664-.614.873-1.149l.464-1.232-5.17-15.016h4.243zM25.54 6.842c1.993 0 3.617.618 4.871 1.854 1.264 1.237 1.97 2.916 2.115 5.038l.027 1.025c0 2.297-.632 4.142-1.897 5.536-1.263 1.384-2.96 2.076-5.088 2.076s-3.829-.692-5.102-2.076c-1.264-1.384-1.897-3.267-1.897-5.647v-.18c0-1.486.282-2.81.846-3.972.564-1.163 1.373-2.062 2.428-2.7 1.065-.636 2.297-.954 3.697-.954zM49.266.835v21.259h-3.56l-.19-1.592c-.984 1.246-2.248 1.869-3.794 1.869-1.737 0-3.133-.692-4.189-2.076-1.046-1.394-1.569-3.327-1.569-5.8 0-2.334.514-4.193 1.542-5.577 1.037-1.384 2.45-2.076 4.243-2.076 1.437 0 2.625.544 3.56 1.633V.835h3.957zm53.128 6.007c1.82 0 3.262.466 4.325 1.398 1.074.922 1.611 2.223 1.611 3.903v6.49c.009 1.422.205 2.497.587 3.226v.235h-3.985c-.182-.36-.313-.807-.395-1.343-.955 1.08-2.196 1.62-3.724 1.62-1.447 0-2.648-.425-3.603-1.274-.946-.848-1.419-1.919-1.419-3.21 0-1.588.578-2.806 1.734-3.654 1.163-.85 2.842-1.278 5.034-1.288h1.814v-.858c0-.692-.177-1.245-.532-1.66-.346-.416-.896-.623-1.651-.623-.664 0-1.187.161-1.569.484-.373.323-.559.766-.559 1.329H96.12c0-.868.264-1.67.791-2.408.528-.739 1.273-1.315 2.238-1.73.964-.425 2.046-.637 3.246-.637zM129.6 1.666c2.356 0 4.197.572 5.526 1.716 1.328 1.135 2.114 2.791 2.36 4.968h-3.984c-.182-1.153-.587-1.997-1.214-2.532-.618-.535-1.473-.803-2.565-.803-1.391 0-2.45.53-3.178 1.592-.729 1.06-1.097 2.638-1.106 4.733v1.287c0 2.113.396 3.71 1.187 4.789.792 1.08 1.951 1.62 3.48 1.62 1.536 0 2.633-.333 3.287-.997v-3.474h-3.725v-3.059h7.818v8.041c-.737.895-1.779 1.592-3.125 2.09-1.345.49-2.837.734-4.474.734-1.72 0-3.23-.379-4.53-1.135-1.291-.766-2.292-1.873-3.002-3.322-.7-1.449-1.06-3.15-1.077-5.107v-1.37c0-2.012.332-3.75.996-5.218.673-1.476 1.637-2.602 2.893-3.377 1.264-.784 2.742-1.176 4.433-1.176zm18.91 5.176c1.992 0 3.616.618 4.87 1.854 1.264 1.237 1.97 2.916 2.116 5.038l.027 1.025c0 2.297-.633 4.142-1.896 5.536-1.265 1.384-2.961 2.076-5.09 2.076-2.128 0-3.829-.692-5.102-2.076-1.264-1.384-1.897-3.267-1.897-5.647v-.18c0-1.486.282-2.81.846-3.972.564-1.163 1.373-2.062 2.43-2.7 1.063-.636 2.295-.954 3.696-.954zM181.254.835v21.259h-3.56l-.192-1.592c-.982 1.246-2.246 1.869-3.793 1.869-1.737 0-3.133-.692-4.188-2.076-1.046-1.394-1.569-3.327-1.569-5.8 0-2.334.514-4.193 1.542-5.577 1.037-1.384 2.451-2.076 4.243-2.076 1.437 0 2.624.544 3.56 1.633V.835h3.957zM7.75 1.942c1.492 0 2.8.277 3.928.83 1.138.554 2.011 1.343 2.62 2.368.61 1.015.914 2.172.914 3.473 0 1.975-.668 3.534-2.005 4.678-1.328 1.135-3.17 1.703-5.525 1.703H4.093v7.1H0V1.942h7.75zM58.08 7.12v14.975h-3.956V7.119h3.957zM67.1.835v21.259h-3.957V.835H67.1zm9.019 6.284v14.975H72.16V7.119h3.957zm87.59-6.284v21.259h-3.955V.835h3.955zm-59.335 14.45H102.9c-1.973 0-3.023.691-3.151 2.075l-.014.236c0 .498.174.909.519 1.232.345.322.818.484 1.419.484.582 0 1.119-.13 1.61-.388.49-.267.855-.622 1.091-1.065v-2.575zM25.54 10.08c-.964 0-1.71.382-2.237 1.148-.527.757-.791 1.933-.791 3.53 0 1.42.264 2.51.79 3.266.529.747 1.283 1.12 2.266 1.12.955 0 1.7-.368 2.237-1.106.537-.748.806-1.938.806-3.571 0-1.393-.269-2.473-.806-3.239-.536-.766-1.29-1.148-2.265-1.148zm122.97 0c-.965 0-1.71.382-2.238 1.148-.527.757-.791 1.933-.791 3.53 0 1.42.264 2.51.791 3.266.528.747 1.283 1.12 2.265 1.12.955 0 1.7-.368 2.238-1.106.536-.748.805-1.938.805-3.571 0-1.393-.269-2.473-.805-3.239-.537-.766-1.292-1.148-2.265-1.148zm-105.751.013c-1.901 0-2.852 1.564-2.852 4.692 0 1.403.241 2.478.723 3.225.482.747 1.183 1.121 2.101 1.121 1.22 0 2.079-.521 2.579-1.564v-5.91c-.491-1.042-1.342-1.564-2.551-1.564zm131.987 0c-1.9 0-2.85 1.564-2.85 4.692 0 1.403.24 2.478.723 3.225.482.747 1.181 1.121 2.1 1.121 1.219 0 2.079-.521 2.579-1.564v-5.91c-.491-1.042-1.341-1.564-2.552-1.564zM7.846 5.306H4.092v6.325H7.75c1.082 0 1.905-.259 2.47-.775.572-.517.859-1.255.859-2.215 0-.987-.287-1.785-.86-2.394-.573-.61-1.365-.923-2.374-.941zm186.806-3.364l1.597 5.094 1.718-5.094H200v7.502h-1.746V4.572l-1.514 4.872h-.983l-1.514-4.886v4.886h-1.746V1.942h2.155zm-3.124 0v1.495h-1.76v5.965h-1.937V3.437h-1.855V1.942h5.552zm-135.426-.76c.673 0 1.21.193 1.61.58.4.388.6.882.6 1.481 0 .61-.204 1.108-.613 1.495-.4.388-.932.581-1.597.581-.664 0-1.2-.193-1.61-.58-.4-.388-.6-.887-.6-1.496 0-.6.195-1.093.586-1.48.4-.388.942-.582 1.624-.582zm18.037 0c.674 0 1.21.193 1.61.58.4.388.6.882.6 1.481 0 .61-.204 1.108-.613 1.495-.4.388-.932.581-1.597.581-.664 0-1.2-.193-1.61-.58-.4-.388-.6-.887-.6-1.496 0-.6.195-1.093.586-1.48.4-.388.942-.582 1.624-.582z"/>
</svg>
