<?xml version="1.0" encoding="utf-8"?>
<svg width="213px" height="30px" viewBox="0 0 213 30" version="1.1" xmlns="http://www.w3.org/2000/svg">
  <title>Podillya-Gold™</title>
  <g id="Page-1" stroke="none" stroke-width="1" fill="none" fill-rule="evenodd">
    <g id="Header-+-Scroll" transform="translate(-161.000000, -26.000000)" fill="#1C1B1B" fill-rule="nonzero">
      <path d="M 166.299 49 L 166.299 41.485 L 170.151 41.485 C 172.681 41.485 174.661 40.882 176.091 39.676 C 177.522 38.47 178.237 36.822 178.237 34.732 C 178.237 33.355 177.91 32.127 177.256 31.048 C 176.602 29.969 175.667 29.137 174.451 28.551 C 173.235 27.965 171.826 27.672 170.225 27.672 L 161.904 27.672 L 161.904 49 L 166.299 49 Z M 170.225 37.926 L 166.299 37.926 L 166.299 31.231 L 170.327 31.231 C 171.411 31.251 172.261 31.583 172.876 32.228 C 173.491 32.872 173.799 33.717 173.799 34.762 C 173.799 35.777 173.494 36.559 172.883 37.105 C 172.273 37.652 171.387 37.926 170.225 37.926 Z M 187.642 49.293 C 189.927 49.293 191.748 48.558 193.105 47.088 C 194.463 45.619 195.142 43.668 195.142 41.236 L 195.112 40.152 C 194.956 37.906 194.202 36.129 192.849 34.82 C 191.497 33.512 189.751 32.857 187.612 32.857 C 186.108 32.857 184.788 33.194 183.65 33.868 C 182.512 34.542 181.641 35.494 181.035 36.725 C 180.43 37.955 180.127 39.356 180.127 40.929 L 180.127 41.119 C 180.127 43.639 180.808 45.631 182.17 47.096 C 183.533 48.561 185.356 49.293 187.642 49.293 Z M 187.642 45.88 C 186.587 45.88 185.776 45.482 185.21 44.686 C 184.644 43.89 184.36 42.74 184.36 41.236 C 184.36 39.547 184.644 38.299 185.21 37.494 C 185.776 36.688 186.577 36.285 187.612 36.285 C 188.657 36.285 189.468 36.69 190.044 37.501 C 190.62 38.312 190.908 39.454 190.908 40.929 C 190.908 42.657 190.62 43.915 190.044 44.701 C 189.468 45.487 188.667 45.88 187.642 45.88 Z M 203.271 49.293 C 204.932 49.293 206.289 48.634 207.344 47.315 L 207.549 49 L 211.372 49 L 211.372 26.5 L 207.124 26.5 L 207.124 34.586 C 206.118 33.434 204.844 32.857 203.301 32.857 C 201.377 32.857 199.861 33.59 198.752 35.055 C 197.644 36.52 197.09 38.487 197.09 40.958 C 197.09 43.575 197.654 45.619 198.782 47.088 C 199.91 48.558 201.406 49.293 203.271 49.293 Z M 204.355 45.865 C 203.369 45.865 202.617 45.47 202.1 44.679 C 201.582 43.888 201.323 42.75 201.323 41.266 C 201.323 37.955 202.344 36.3 204.385 36.3 C 205.684 36.3 206.597 36.852 207.124 37.955 L 207.124 44.21 C 206.587 45.313 205.664 45.865 204.355 45.865 Z M 216.997 31.246 C 217.71 31.246 218.284 31.041 218.718 30.631 C 219.153 30.221 219.37 29.693 219.37 29.049 C 219.37 28.414 219.155 27.892 218.726 27.481 C 218.296 27.071 217.72 26.866 216.997 26.866 C 216.265 26.866 215.686 27.071 215.261 27.481 C 214.836 27.892 214.624 28.414 214.624 29.049 C 214.624 29.693 214.841 30.221 215.276 30.631 C 215.71 31.041 216.284 31.246 216.997 31.246 Z M 219.121 49 L 219.121 33.15 L 214.873 33.15 L 214.873 49 L 219.121 49 Z M 227.075 49 L 227.075 26.5 L 222.827 26.5 L 222.827 49 L 227.075 49 Z M 235.029 49 L 234.793 33.466 L 231.017 33.348 L 230.781 49 L 235.029 49 Z M 240.493 55.401 C 242.671 55.401 244.233 54.366 245.181 52.296 L 245.532 51.461 L 251.904 33.15 L 247.363 33.15 L 244.434 43.009 L 241.489 33.15 L 236.934 33.15 L 242.485 49.044 L 241.987 50.348 C 241.763 50.914 241.453 51.319 241.057 51.563 C 240.662 51.808 240.063 51.93 239.263 51.93 L 238.618 51.915 L 238.618 55.123 C 239.253 55.309 239.878 55.401 240.493 55.401 Z M 258.115 49.293 C 259.756 49.293 261.089 48.722 262.114 47.579 C 262.202 48.146 262.344 48.619 262.539 49 L 266.816 49 L 266.816 48.751 C 266.406 47.979 266.196 46.842 266.187 45.338 L 266.187 38.468 C 266.187 36.69 265.613 35.311 264.465 34.33 C 263.318 33.348 261.768 32.857 259.814 32.857 C 258.525 32.857 257.363 33.08 256.328 33.524 C 255.293 33.968 254.492 34.581 253.926 35.362 C 253.359 36.144 253.076 36.993 253.076 37.911 L 257.31 37.911 C 257.31 37.315 257.512 36.847 257.917 36.505 C 258.323 36.163 258.882 35.992 259.595 35.992 C 260.405 35.992 260.999 36.212 261.375 36.651 C 261.75 37.091 261.938 37.677 261.938 38.409 L 261.938 39.317 L 259.99 39.317 C 257.637 39.327 255.837 39.781 254.592 40.68 C 253.347 41.578 252.725 42.867 252.725 44.547 C 252.725 45.914 253.235 47.047 254.255 47.945 C 255.276 48.844 256.563 49.293 258.115 49.293 Z M 259.038 46.056 C 258.394 46.056 257.886 45.885 257.515 45.543 C 257.144 45.201 256.958 44.767 256.958 44.239 L 256.973 43.99 C 257.109 42.525 258.237 41.793 260.356 41.793 L 261.938 41.793 L 261.938 44.518 C 261.685 44.986 261.294 45.36 260.767 45.638 C 260.239 45.917 259.663 46.056 259.038 46.056 Z M 285.142 41.573 L 285.142 38.16 L 276.895 38.16 L 276.895 41.573 L 285.142 41.573 Z M 305.005 49.293 C 306.763 49.293 308.364 49.032 309.81 48.509 C 311.255 47.987 312.373 47.252 313.164 46.305 L 313.164 37.794 L 304.771 37.794 L 304.771 41.031 L 308.77 41.031 L 308.77 44.708 C 308.066 45.411 306.89 45.763 305.239 45.763 C 303.599 45.763 302.354 45.191 301.504 44.049 C 300.654 42.906 300.229 41.217 300.229 38.98 L 300.229 37.618 C 300.239 35.401 300.635 33.731 301.416 32.608 C 302.197 31.485 303.335 30.924 304.829 30.924 C 306.001 30.924 306.921 31.207 307.59 31.773 C 308.259 32.34 308.691 33.233 308.887 34.454 L 313.164 34.454 C 312.9 32.149 312.056 30.394 310.63 29.188 C 309.204 27.982 307.227 27.379 304.697 27.379 C 302.881 27.379 301.296 27.792 299.944 28.617 C 298.591 29.442 297.556 30.633 296.838 32.191 C 296.121 33.749 295.762 35.592 295.762 37.721 L 295.762 39.171 C 295.781 41.241 296.169 43.043 296.926 44.576 C 297.683 46.109 298.757 47.279 300.149 48.084 C 301.541 48.89 303.159 49.293 305.005 49.293 Z M 323.301 49.293 C 325.586 49.293 327.407 48.558 328.765 47.088 C 330.122 45.619 330.801 43.668 330.801 41.236 L 330.771 40.152 C 330.615 37.906 329.861 36.129 328.508 34.82 C 327.156 33.512 325.41 32.857 323.271 32.857 C 321.768 32.857 320.447 33.194 319.309 33.868 C 318.171 34.542 317.3 35.494 316.694 36.725 C 316.089 37.955 315.786 39.356 315.786 40.929 L 315.786 41.119 C 315.786 43.639 316.467 45.631 317.83 47.096 C 319.192 48.561 321.016 49.293 323.301 49.293 Z M 323.301 45.88 C 322.246 45.88 321.436 45.482 320.869 44.686 C 320.303 43.89 320.02 42.74 320.02 41.236 C 320.02 39.547 320.303 38.299 320.869 37.494 C 321.436 36.688 322.236 36.285 323.271 36.285 C 324.316 36.285 325.127 36.69 325.703 37.501 C 326.279 38.312 326.567 39.454 326.567 40.929 C 326.567 42.657 326.279 43.915 325.703 44.701 C 325.127 45.487 324.326 45.88 323.301 45.88 Z M 337.876 49 L 337.876 26.5 L 333.628 26.5 L 333.628 49 L 337.876 49 Z M 346.885 49.293 C 348.545 49.293 349.902 48.634 350.957 47.315 L 351.162 49 L 354.985 49 L 354.985 26.5 L 350.737 26.5 L 350.737 34.586 C 349.731 33.434 348.457 32.857 346.914 32.857 C 344.99 32.857 343.474 33.59 342.366 35.055 C 341.257 36.52 340.703 38.487 340.703 40.958 C 340.703 43.575 341.267 45.619 342.395 47.088 C 343.523 48.558 345.02 49.293 346.885 49.293 Z M 347.969 45.865 C 346.982 45.865 346.23 45.47 345.713 44.679 C 345.195 43.888 344.937 42.75 344.937 41.266 C 344.937 37.955 345.957 36.3 347.998 36.3 C 349.297 36.3 350.21 36.852 350.737 37.955 L 350.737 44.21 C 350.2 45.313 349.277 45.865 347.969 45.865 Z M 367.217 35.611 L 367.217 30.44 L 368.843 35.611 L 369.897 35.611 L 371.523 30.455 L 371.523 35.611 L 373.398 35.611 L 373.398 27.672 L 371.216 27.672 L 369.37 33.063 L 367.656 27.672 L 365.342 27.672 L 365.342 35.611 L 367.217 35.611 Z M 362.412 35.567 L 362.412 29.254 L 364.302 29.254 L 364.302 27.672 L 358.34 27.672 L 358.34 29.254 L 360.332 29.254 L 360.332 35.567 L 362.412 35.567 Z" id="Podillya-Gold™"/>
    </g>
  </g>
  <circle style="" cx="71.856" cy="3.496" r="2.122" transform="matrix(1.220577, 0, 0, 1.147051, -16.005764, -0.670111)"/>
</svg>