<?xml version="1.0" encoding="UTF-8"?>
<svg width="213px" height="30px" viewBox="0 0 213 30" version="1.1" xmlns="http://www.w3.org/2000/svg" xmlns:xlink="http://www.w3.org/1999/xlink">
    <title>Podillya-Gold™</title>
    <g id="Page-1" stroke="none" stroke-width="1" fill="none" fill-rule="evenodd">
        <g id="Header-+-Scroll" transform="translate(-161.000000, -26.000000)" fill="#ffffff" fill-rule="nonzero">
            <path d="M166.298828,49 L166.298828,41.4853516 L170.151367,41.4853516 C172.680664,41.4853516 174.660645,40.8823242 176.091309,39.6762695 C177.521973,38.4702148 178.237305,36.8222656 178.237305,34.7324219 C178.237305,33.3554688 177.910156,32.1274414 177.255859,31.0483398 C176.601562,29.9692383 175.666504,29.1367188 174.450684,28.5507812 C173.234863,27.9648438 171.826172,27.671875 170.224609,27.671875 L170.224609,27.671875 L161.904297,27.671875 L161.904297,49 L166.298828,49 Z M170.224609,37.9257812 L166.298828,37.9257812 L166.298828,31.2314453 L170.327148,31.2314453 C171.411133,31.2509766 172.260742,31.5830078 172.875977,32.2275391 C173.491211,32.8720703 173.798828,33.7167969 173.798828,34.7617188 C173.798828,35.7773438 173.493652,36.5585938 172.883301,37.1054688 C172.272949,37.6523438 171.386719,37.9257812 170.224609,37.9257812 L170.224609,37.9257812 Z M187.641602,49.2929688 C189.926758,49.2929688 191.748047,48.5581055 193.105469,47.0883789 C194.462891,45.6186523 195.141602,43.6679688 195.141602,41.2363281 L195.141602,41.2363281 L195.112305,40.1523438 C194.956055,37.90625 194.20166,36.1289062 192.849121,34.8203125 C191.496582,33.5117188 189.750977,32.8574219 187.612305,32.8574219 C186.108398,32.8574219 184.787598,33.1943359 183.649902,33.8681641 C182.512207,34.5419922 181.640625,35.4941406 181.035156,36.7246094 C180.429688,37.9550781 180.126953,39.3564453 180.126953,40.9287109 L180.126953,40.9287109 L180.126953,41.1191406 C180.126953,43.6386719 180.808105,45.6308594 182.17041,47.0957031 C183.532715,48.5605469 185.356445,49.2929688 187.641602,49.2929688 Z M187.641602,45.8798828 C186.586914,45.8798828 185.776367,45.4819336 185.209961,44.6860352 C184.643555,43.8901367 184.360352,42.7402344 184.360352,41.2363281 C184.360352,39.546875 184.643555,38.2993164 185.209961,37.4936523 C185.776367,36.6879883 186.577148,36.2851562 187.612305,36.2851562 C188.657227,36.2851562 189.467773,36.6904297 190.043945,37.5009766 C190.620117,38.3115234 190.908203,39.4541016 190.908203,40.9287109 C190.908203,42.6572266 190.620117,43.9145508 190.043945,44.7006836 C189.467773,45.4868164 188.666992,45.8798828 187.641602,45.8798828 Z M203.271484,49.2929688 C204.931641,49.2929688 206.289062,48.6337891 207.34375,47.3154297 L207.34375,47.3154297 L207.548828,49 L211.37207,49 L211.37207,26.5 L207.124023,26.5 L207.124023,34.5859375 C206.118164,33.4335938 204.84375,32.8574219 203.300781,32.8574219 C201.376953,32.8574219 199.86084,33.5898438 198.752441,35.0546875 C197.644043,36.5195312 197.089844,38.4873047 197.089844,40.9580078 C197.089844,43.5751953 197.653809,45.6186523 198.781738,47.0883789 C199.909668,48.5581055 201.40625,49.2929688 203.271484,49.2929688 Z M204.355469,45.8652344 C203.369141,45.8652344 202.617188,45.4697266 202.099609,44.6787109 C201.582031,43.8876953 201.323242,42.75 201.323242,41.265625 C201.323242,37.9550781 202.34375,36.2998047 204.384766,36.2998047 C205.683594,36.2998047 206.59668,36.8515625 207.124023,37.9550781 L207.124023,37.9550781 L207.124023,44.2099609 C206.586914,45.3134766 205.664062,45.8652344 204.355469,45.8652344 Z M216.99707,31.2460938 C217.709961,31.2460938 218.283691,31.0410156 218.718262,30.6308594 C219.152832,30.2207031 219.370117,29.6933594 219.370117,29.0488281 C219.370117,28.4140625 219.155273,27.8916016 218.725586,27.4814453 C218.295898,27.0712891 217.719727,26.8662109 216.99707,26.8662109 C216.264648,26.8662109 215.686035,27.0712891 215.26123,27.4814453 C214.836426,27.8916016 214.624023,28.4140625 214.624023,29.0488281 C214.624023,29.6933594 214.841309,30.2207031 215.275879,30.6308594 C215.710449,31.0410156 216.28418,31.2460938 216.99707,31.2460938 Z M219.121094,49 L219.121094,33.1503906 L214.873047,33.1503906 L214.873047,49 L219.121094,49 Z M227.075195,49 L227.075195,26.5 L222.827148,26.5 L222.827148,49 L227.075195,49 Z M235.029297,49 L235.029297,26.5 L230.78125,26.5 L230.78125,49 L235.029297,49 Z M240.493164,55.4013672 C242.670898,55.4013672 244.233398,54.3662109 245.180664,52.2958984 L245.180664,52.2958984 L245.532227,51.4609375 L251.904297,33.1503906 L247.363281,33.1503906 L244.433594,43.0087891 L241.489258,33.1503906 L236.933594,33.1503906 L242.485352,49.0439453 L241.987305,50.3476562 C241.762695,50.9140625 241.452637,51.3193359 241.057129,51.5634766 C240.661621,51.8076172 240.063477,51.9296875 239.262695,51.9296875 L239.262695,51.9296875 L238.618164,51.9150391 L238.618164,55.1230469 C239.25293,55.3085938 239.87793,55.4013672 240.493164,55.4013672 Z M258.115234,49.2929688 C259.755859,49.2929688 261.088867,48.7216797 262.114258,47.5791016 C262.202148,48.1455078 262.34375,48.6191406 262.539062,49 L262.539062,49 L266.816406,49 L266.816406,48.7509766 C266.40625,47.9794922 266.196289,46.8417969 266.186523,45.3378906 L266.186523,45.3378906 L266.186523,38.4677734 C266.186523,36.6904297 265.612793,35.3110352 264.465332,34.3295898 C263.317871,33.3481445 261.767578,32.8574219 259.814453,32.8574219 C258.525391,32.8574219 257.363281,33.0795898 256.328125,33.5239258 C255.292969,33.9682617 254.492188,34.5810547 253.925781,35.3623047 C253.359375,36.1435547 253.076172,36.9931641 253.076172,37.9111328 L253.076172,37.9111328 L257.30957,37.9111328 C257.30957,37.3154297 257.512207,36.8466797 257.91748,36.5048828 C258.322754,36.1630859 258.881836,35.9921875 259.594727,35.9921875 C260.405273,35.9921875 260.998535,36.2119141 261.374512,36.6513672 C261.750488,37.0908203 261.938477,37.6767578 261.938477,38.4091797 L261.938477,38.4091797 L261.938477,39.3173828 L259.990234,39.3173828 C257.636719,39.3271484 255.837402,39.78125 254.592285,40.6796875 C253.347168,41.578125 252.724609,42.8671875 252.724609,44.546875 C252.724609,45.9140625 253.234863,47.046875 254.255371,47.9453125 C255.275879,48.84375 256.5625,49.2929688 258.115234,49.2929688 Z M259.038086,46.0556641 C258.393555,46.0556641 257.885742,45.8847656 257.514648,45.5429688 C257.143555,45.2011719 256.958008,44.7666016 256.958008,44.2392578 L256.958008,44.2392578 L256.972656,43.9902344 C257.109375,42.5253906 258.237305,41.7929688 260.356445,41.7929688 L260.356445,41.7929688 L261.938477,41.7929688 L261.938477,44.5175781 C261.68457,44.9863281 261.293945,45.3598633 260.766602,45.6381836 C260.239258,45.9165039 259.663086,46.0556641 259.038086,46.0556641 Z M285.141602,41.5732422 L285.141602,38.1601562 L276.894531,38.1601562 L276.894531,41.5732422 L285.141602,41.5732422 Z M305.004883,49.2929688 C306.762695,49.2929688 308.364258,49.0317383 309.80957,48.5092773 C311.254883,47.9868164 312.373047,47.2519531 313.164062,46.3046875 L313.164062,46.3046875 L313.164062,37.7939453 L304.770508,37.7939453 L304.770508,41.03125 L308.769531,41.03125 L308.769531,44.7080078 C308.066406,45.4111328 306.889648,45.7626953 305.239258,45.7626953 C303.598633,45.7626953 302.353516,45.1914062 301.503906,44.0488281 C300.654297,42.90625 300.229492,41.2167969 300.229492,38.9804688 L300.229492,38.9804688 L300.229492,37.6181641 C300.239258,35.4013672 300.634766,33.7314453 301.416016,32.6083984 C302.197266,31.4853516 303.334961,30.9238281 304.829102,30.9238281 C306.000977,30.9238281 306.921387,31.2070312 307.590332,31.7734375 C308.259277,32.3398438 308.691406,33.2333984 308.886719,34.4541016 L308.886719,34.4541016 L313.164062,34.4541016 C312.900391,32.1494141 312.055664,30.394043 310.629883,29.1879883 C309.204102,27.9819336 307.226562,27.3789062 304.697266,27.3789062 C302.880859,27.3789062 301.296387,27.7915039 299.943848,28.6166992 C298.591309,29.4418945 297.556152,30.6333008 296.838379,32.190918 C296.120605,33.7485352 295.761719,35.5917969 295.761719,37.7207031 L295.761719,37.7207031 L295.761719,39.1708984 C295.78125,41.2412109 296.169434,43.0429688 296.92627,44.5761719 C297.683105,46.109375 298.757324,47.2788086 300.148926,48.0844727 C301.540527,48.8901367 303.15918,49.2929688 305.004883,49.2929688 Z M323.300781,49.2929688 C325.585938,49.2929688 327.407227,48.5581055 328.764648,47.0883789 C330.12207,45.6186523 330.800781,43.6679688 330.800781,41.2363281 L330.800781,41.2363281 L330.771484,40.1523438 C330.615234,37.90625 329.86084,36.1289062 328.508301,34.8203125 C327.155762,33.5117188 325.410156,32.8574219 323.271484,32.8574219 C321.767578,32.8574219 320.446777,33.1943359 319.309082,33.8681641 C318.171387,34.5419922 317.299805,35.4941406 316.694336,36.7246094 C316.088867,37.9550781 315.786133,39.3564453 315.786133,40.9287109 L315.786133,40.9287109 L315.786133,41.1191406 C315.786133,43.6386719 316.467285,45.6308594 317.82959,47.0957031 C319.191895,48.5605469 321.015625,49.2929688 323.300781,49.2929688 Z M323.300781,45.8798828 C322.246094,45.8798828 321.435547,45.4819336 320.869141,44.6860352 C320.302734,43.8901367 320.019531,42.7402344 320.019531,41.2363281 C320.019531,39.546875 320.302734,38.2993164 320.869141,37.4936523 C321.435547,36.6879883 322.236328,36.2851562 323.271484,36.2851562 C324.316406,36.2851562 325.126953,36.6904297 325.703125,37.5009766 C326.279297,38.3115234 326.567383,39.4541016 326.567383,40.9287109 C326.567383,42.6572266 326.279297,43.9145508 325.703125,44.7006836 C325.126953,45.4868164 324.326172,45.8798828 323.300781,45.8798828 Z M337.875977,49 L337.875977,26.5 L333.62793,26.5 L333.62793,49 L337.875977,49 Z M346.884766,49.2929688 C348.544922,49.2929688 349.902344,48.6337891 350.957031,47.3154297 L350.957031,47.3154297 L351.162109,49 L354.985352,49 L354.985352,26.5 L350.737305,26.5 L350.737305,34.5859375 C349.731445,33.4335938 348.457031,32.8574219 346.914062,32.8574219 C344.990234,32.8574219 343.474121,33.5898438 342.365723,35.0546875 C341.257324,36.5195312 340.703125,38.4873047 340.703125,40.9580078 C340.703125,43.5751953 341.26709,45.6186523 342.39502,47.0883789 C343.522949,48.5581055 345.019531,49.2929688 346.884766,49.2929688 Z M347.96875,45.8652344 C346.982422,45.8652344 346.230469,45.4697266 345.712891,44.6787109 C345.195312,43.8876953 344.936523,42.75 344.936523,41.265625 C344.936523,37.9550781 345.957031,36.2998047 347.998047,36.2998047 C349.296875,36.2998047 350.209961,36.8515625 350.737305,37.9550781 L350.737305,37.9550781 L350.737305,44.2099609 C350.200195,45.3134766 349.277344,45.8652344 347.96875,45.8652344 Z M367.216797,35.6113281 L367.216797,30.4404297 L368.842773,35.6113281 L369.897461,35.6113281 L371.523438,30.4550781 L371.523438,35.6113281 L373.398438,35.6113281 L373.398438,27.671875 L371.21582,27.671875 L369.370117,33.0625 L367.65625,27.671875 L365.341797,27.671875 L365.341797,35.6113281 L367.216797,35.6113281 Z M362.412109,35.5673828 L362.412109,29.2539062 L364.301758,29.2539062 L364.301758,27.671875 L358.339844,27.671875 L358.339844,29.2539062 L360.332031,29.2539062 L360.332031,35.5673828 L362.412109,35.5673828 Z" id="Podillya-Gold™"></path>
        </g>
    </g>
</svg>