<svg xmlns="http://www.w3.org/2000/svg" width="80" height="80" viewBox="0 0 80 80">
    <g fill="none" fill-rule="evenodd">
        <rect width="80" height="80" fill="#F7D200" fill-rule="nonzero" rx="40"/>
        <path stroke="#000" stroke-width="2" d="M40 28.137L31.306 44.56c-.751 1.418-1.143 2.998-1.143 4.603 0 2.716 1.1 5.175 2.88 6.956C34.825 57.899 37.284 59 40 59c1.605 0 3.185-.392 4.603-1.143 2.4-1.271 4.059-3.395 4.8-5.801.74-2.407.562-5.095-.709-7.496L40 28.137z"/>
        <path fill="#F7D200" stroke="#000" stroke-width="2" d="M54.5 23.257l-.555 1.72-1.53-.961.68 1.673-1.788.248 1.596.845-1.211 1.34 1.766-.38-.067 1.805 1.109-1.426 1.109 1.426-.067-1.805 1.766.38-1.211-1.34 1.596-.845-1.789-.248.68-1.673-1.53.96-.554-1.719z"/>
    </g>
</svg>
